<?xml version="1.0" standalone="no"?>
<!DOCTYPE svg PUBLIC "-//W3C//DTD SVG 20010904//EN"
 "http://www.w3.org/TR/2001/REC-SVG-20010904/DTD/svg10.dtd">
<svg version="1.0" xmlns="http://www.w3.org/2000/svg"
 width="1229.000000pt" height="1229.000000pt" viewBox="0 0 1229.000000 1229.000000"
 preserveAspectRatio="xMidYMid meet">
<metadata>
Created by potrace 1.11, written by Peter Selinger 2001-2013
</metadata>
<g transform="translate(0.000000,1229.000000) scale(0.100000,-0.100000)"
fill="#000000" stroke="none">
<path d="M5837 12284 c-1 -1 -51 -5 -112 -8 -60 -3 -126 -8 -145 -11 -19 -2
-62 -7 -95 -10 -114 -12 -196 -23 -265 -35 -30 -5 -70 -12 -87 -15 -69 -11
-91 -15 -188 -35 -55 -12 -111 -24 -125 -26 -162 -32 -473 -121 -695 -199
-767 -270 -1467 -680 -2055 -1203 -83 -74 -415 -403 -496 -492 -34 -38 -280
-335 -302 -365 -4 -5 -44 -59 -88 -120 -386 -527 -708 -1165 -902 -1790 -42
-133 -117 -406 -126 -460 -3 -16 -8 -41 -11 -55 -3 -14 -8 -36 -11 -50 -3 -14
-11 -52 -18 -85 -8 -33 -17 -81 -20 -106 -4 -25 -9 -58 -11 -72 -19 -110 -25
-149 -31 -197 -3 -30 -7 -66 -9 -80 -2 -14 -6 -56 -10 -95 -4 -38 -9 -78 -11
-88 -24 -131 -24 -850 1 -1062 2 -16 6 -62 9 -101 4 -39 8 -80 10 -90 2 -11 7
-41 10 -69 4 -27 9 -61 11 -75 2 -14 6 -45 9 -70 3 -25 8 -54 10 -65 13 -66
39 -205 43 -230 11 -66 95 -399 136 -540 93 -316 226 -649 391 -985 60 -120
156 -300 178 -332 10 -14 18 -28 18 -31 0 -6 127 -213 154 -252 11 -16 26 -37
31 -46 53 -84 274 -388 309 -425 6 -6 27 -30 46 -54 158 -197 432 -484 654
-685 49 -44 94 -85 100 -90 6 -6 31 -26 56 -45 25 -19 56 -45 70 -58 69 -64
490 -366 601 -431 13 -8 62 -38 109 -67 88 -53 396 -224 404 -224 3 0 58 -26
123 -58 389 -191 910 -369 1353 -462 58 -12 114 -24 125 -27 24 -5 52 -10 130
-23 33 -6 74 -12 90 -15 26 -5 103 -15 215 -29 19 -3 62 -8 95 -11 33 -4 74
-8 90 -10 211 -25 903 -26 1055 -1 14 3 59 7 100 10 41 3 84 8 96 10 12 2 45
7 75 11 30 3 65 8 79 10 14 2 57 9 95 15 933 144 1888 539 2665 1104 123 89
307 234 385 304 117 105 151 136 270 252 298 290 517 548 746 875 222 318 437
693 558 975 23 52 46 103 52 114 34 59 191 491 253 696 32 107 68 241 82 308
2 12 14 61 25 109 25 105 65 321 74 398 3 22 7 51 10 65 3 14 8 45 11 70 3 25
7 56 9 70 2 14 7 57 11 95 3 39 8 81 10 95 11 89 19 334 18 565 -1 290 -6 391
-30 600 -2 22 -6 62 -9 89 -4 45 -11 99 -20 156 -2 14 -9 57 -15 95 -16 101
-17 108 -45 245 -40 194 -86 384 -97 395 -6 6 -7 5 -4 -5 5 -17 14 -104 23
-245 14 -202 7 -676 -12 -840 -3 -22 -7 -60 -10 -85 -9 -78 -25 -196 -30 -220
-3 -13 -7 -42 -11 -65 -7 -52 -22 -126 -38 -195 -3 -14 -8 -36 -10 -50 -21
-135 -156 -575 -240 -784 -78 -192 -84 -206 -168 -379 -315 -641 -711 -1161
-1264 -1657 -541 -486 -1294 -898 -2021 -1104 -87 -25 -169 -47 -183 -50 -14
-3 -62 -14 -107 -25 -86 -22 -117 -28 -173 -37 -19 -3 -43 -7 -52 -10 -10 -3
-28 -7 -40 -9 -60 -11 -167 -27 -198 -31 -19 -2 -44 -6 -55 -9 -11 -2 -56 -7
-100 -11 -44 -3 -82 -8 -86 -10 -15 -8 -290 -19 -499 -19 -203 0 -342 6 -480
20 -130 12 -177 17 -195 21 -11 2 -38 6 -60 9 -22 3 -49 7 -60 9 -11 2 -40 7
-65 10 -704 107 -1450 401 -2075 819 -130 87 -299 212 -411 304 -303 248 -650
611 -864 903 -30 41 -57 77 -60 80 -11 10 -178 267 -231 355 -90 150 -162 289
-277 535 -125 267 -276 724 -337 1019 -2 9 -8 38 -15 65 -6 27 -12 61 -14 75
-2 14 -9 49 -14 76 -9 42 -17 92 -37 235 -10 70 -20 166 -32 310 -18 225 -7
725 22 930 3 19 8 55 10 80 3 25 8 56 10 70 34 208 48 282 68 375 181 815 547
1565 1092 2234 155 190 450 489 659 666 55 47 126 103 206 164 52 39 104 78
115 87 120 94 480 311 710 427 399 201 962 395 1358 468 65 12 89 25 47 25
-12 0 -22 -1 -23 -2z"/>
<path d="M5898 12283 c7 -3 16 -2 19 1 4 3 -2 6 -13 5 -11 0 -14 -3 -6 -6z"/>
<path d="M5630 11125 c-107 -33 -310 -106 -365 -130 -16 -8 -59 -26 -95 -40
-247 -101 -606 -309 -845 -489 -760 -571 -1305 -1373 -1544 -2273 -40 -152
-77 -317 -86 -388 -3 -23 -7 -52 -10 -65 -6 -30 -12 -78 -20 -150 -4 -30 -8
-66 -10 -80 -27 -185 -22 -643 10 -879 3 -25 8 -59 10 -76 2 -16 8 -58 14 -92
6 -35 15 -89 21 -120 20 -117 90 -382 140 -528 28 -82 52 -154 54 -160 2 -5 8
-21 13 -35 6 -14 28 -65 48 -115 125 -302 337 -662 547 -930 157 -199 422
-472 598 -615 30 -25 61 -51 68 -58 8 -7 30 -25 50 -40 21 -15 39 -29 42 -32
19 -20 265 -186 375 -252 337 -203 852 -415 1149 -474 10 -2 33 -8 50 -13 27
-9 62 -16 171 -36 67 -13 203 -34 250 -40 28 -4 61 -8 74 -10 13 -2 67 -7 120
-11 53 -3 112 -8 131 -10 43 -4 409 -4 470 0 41 3 91 8 240 22 30 3 62 7 70 9
8 3 35 7 60 10 25 3 83 13 130 21 47 9 96 18 110 21 50 9 268 65 382 99 351
104 739 282 1048 482 171 111 423 302 560 426 82 75 330 328 330 338 0 4 -48
-24 -107 -61 -60 -37 -121 -74 -138 -83 -16 -8 -61 -32 -99 -52 -38 -21 -113
-57 -168 -82 -55 -25 -119 -54 -142 -64 -151 -70 -555 -197 -749 -236 -106
-21 -240 -45 -277 -49 -25 -3 -65 -8 -90 -11 -254 -32 -651 -36 -861 -8 -19 2
-56 6 -84 9 -296 29 -793 154 -1030 260 -16 7 -55 23 -85 35 -154 61 -448 219
-636 343 -78 50 -298 214 -354 262 -183 159 -354 329 -499 500 -100 116 -248
327 -355 504 -259 426 -463 1012 -526 1511 -6 47 -13 99 -15 116 -32 226 -22
717 20 954 1 8 10 62 20 120 70 426 251 931 462 1288 24 41 43 76 43 78 0 20
234 351 339 479 215 263 530 557 791 738 51 36 216 144 253 166 20 12 37 25
37 27 0 2 -1 4 -2 3 -2 -1 -50 -16 -108 -34z"/>
<path d="M5670 9628 c-93 -15 -157 -68 -212 -178 -30 -59 -33 -73 -33 -155 1
-78 4 -97 28 -142 15 -28 48 -74 75 -100 54 -54 198 -172 220 -180 17 -7 8
-107 -14 -140 -12 -19 -18 -21 -42 -12 -21 7 -39 29 -67 79 -30 55 -45 72 -74
84 -64 26 -174 5 -186 -35 -15 -47 107 -224 190 -277 73 -46 180 -51 258 -13
148 72 220 250 156 386 -25 54 -88 121 -151 162 -133 87 -179 154 -171 252 4
57 23 91 49 87 27 -4 33 -21 35 -91 4 -137 32 -185 111 -185 79 0 136 61 125
136 -29 198 -46 241 -113 286 -23 15 -59 30 -80 34 -22 3 -41 7 -44 8 -3 1
-30 -1 -60 -6z"/>
<path d="M6924 9617 c-24 -21 -29 -33 -33 -81 -1 -5 -10 3 -21 16 -41 53 -158
76 -231 45 -178 -74 -261 -474 -162 -782 52 -164 128 -247 219 -240 75 6 138
54 195 152 l29 48 1 -50 c0 -27 2 -97 4 -155 3 -79 0 -111 -11 -127 -20 -32
-57 -29 -91 7 -34 37 -80 53 -148 52 -96 -1 -142 -46 -115 -112 8 -20 24 -33
47 -41 20 -6 52 -22 71 -35 49 -34 134 -57 212 -57 88 -1 145 26 185 90 l30
48 -1 150 c-8 867 -13 1027 -31 1047 -46 51 -107 61 -149 25z m-122 -224 c56
-64 85 -256 58 -376 -14 -65 -66 -170 -100 -202 -32 -31 -73 -27 -92 9 -37 69
-50 311 -21 411 19 65 52 134 75 157 23 23 60 23 80 1z"/>
<path d="M6150 8862 c-33 -16 -35 -20 -41 -82 -3 -36 -11 -79 -16 -95 -24 -71
50 -133 140 -118 56 9 75 31 82 96 3 32 10 69 15 83 16 40 12 69 -12 90 -52
46 -111 55 -168 26z"/>
<path d="M7320 8873 c-35 -13 -50 -37 -50 -80 0 -24 -7 -66 -16 -93 -14 -43
-14 -51 0 -78 9 -18 30 -36 56 -46 83 -33 160 6 160 82 1 20 7 54 15 75 12 36
12 78 -2 100 -18 30 -122 55 -163 40z"/>
<path d="M4524 8518 c-17 -4 -42 -18 -57 -32 -26 -24 -51 -91 -40 -109 3 -5 5
-93 5 -196 -2 -829 0 -1625 4 -1666 15 -151 48 -256 95 -301 26 -24 38 -29 82
-29 63 0 108 28 137 85 29 57 30 78 5 148 -29 84 -24 178 20 363 53 227 226
580 325 663 39 32 55 33 75 2 17 -26 20 -39 35 -136 10 -64 7 -481 -3 -530 -3
-14 -8 -50 -12 -80 -14 -117 -18 -136 -40 -180 -60 -120 15 -213 167 -206 109
5 171 56 169 137 -4 92 -3 106 13 164 53 195 34 642 -36 855 -75 229 -159 321
-293 321 -170 0 -326 -118 -416 -316 -22 -49 -20 -96 -23 410 l-2 400 23 41
c31 55 30 94 -4 129 -52 52 -159 82 -229 63z"/>
<path d="M9085 7870 c-64 -15 -88 -33 -179 -127 -52 -54 -128 -134 -170 -177
l-76 -80 0 55 c0 34 6 63 16 77 26 37 27 75 4 105 -55 69 -305 53 -362 -24
-19 -25 -19 -26 3 -80 22 -53 22 -61 23 -655 2 -582 2 -601 22 -634 48 -84
171 -112 267 -64 102 52 124 135 69 252 -29 61 -30 69 -32 215 -1 84 -3 186
-4 228 l-2 77 89 103 c90 104 118 137 262 304 74 86 82 92 174 133 120 53 156
87 148 144 -3 21 -12 50 -21 63 -21 33 -93 73 -141 80 -22 3 -44 7 -50 9 -5 1
-23 -1 -40 -4z"/>
<path d="M9908 7835 c-2 -2 -25 -5 -53 -9 -112 -13 -193 -52 -270 -130 -131
-133 -185 -334 -179 -674 1 -86 5 -170 8 -187 19 -117 29 -157 57 -235 92
-252 274 -375 501 -340 155 23 264 109 341 271 71 146 101 301 101 509 -1 328
-70 548 -216 689 -49 47 -130 89 -186 97 -66 8 -101 11 -104 9z m90 -286 c47
-28 74 -109 89 -264 8 -92 9 -318 0 -375 -9 -62 -17 -101 -24 -125 -4 -11 -8
-24 -9 -30 -17 -80 -87 -218 -119 -235 -79 -43 -172 54 -190 198 -4 26 -8 54
-11 63 -2 9 -6 95 -9 190 -4 163 2 232 32 381 11 57 78 172 113 196 38 26 87
26 128 1z"/>
<path d="M8030 7820 c-44 -13 -89 -40 -104 -63 -12 -18 -296 -862 -296 -879 0
-3 -7 -23 -16 -44 l-17 -39 -34 120 c-19 66 -36 128 -38 137 -2 9 -19 72 -39
140 -19 68 -54 191 -76 273 -64 228 -97 287 -188 327 -78 35 -205 6 -242 -55
-26 -41 -24 -84 3 -123 75 -106 97 -143 106 -179 5 -22 51 -184 101 -360 51
-176 95 -333 100 -350 4 -16 22 -79 39 -138 19 -67 33 -144 36 -200 7 -103 20
-132 70 -153 90 -37 228 -16 291 45 35 34 43 54 214 541 210 599 215 611 269
699 54 89 67 131 58 188 -8 46 -30 79 -68 99 -35 17 -130 26 -169 14z"/>
<path d="M10609 7815 c-54 -29 -54 -29 -52 -679 2 -330 5 -631 8 -669 11 -158
59 -243 149 -266 93 -23 139 -13 190 43 29 32 68 105 61 116 -2 4 -7 34 -10
67 -10 90 28 214 135 448 139 301 180 385 190 385 27 0 40 -163 54 -685 6
-212 12 -219 176 -219 88 0 112 3 151 22 63 31 81 54 86 109 4 38 -1 58 -20
94 -25 45 -25 52 -25 255 1 190 -8 448 -17 492 -1 10 -6 45 -10 77 -18 155
-67 296 -121 351 -25 24 -32 26 -96 22 -124 -9 -244 -90 -357 -242 -43 -57
-128 -219 -194 -366 -15 -33 -16 -28 -16 139 -1 120 3 190 13 230 27 102 27
136 3 173 -27 40 -104 94 -155 108 -51 14 -112 12 -143 -5z"/>
<path d="M6388 7795 c-2 -1 -25 -5 -53 -8 -197 -21 -490 -133 -626 -238 -70
-54 -85 -136 -44 -223 18 -37 81 -76 124 -76 37 0 92 35 179 113 97 88 145
119 226 142 69 20 178 23 212 5 32 -18 56 -71 49 -111 -16 -88 -71 -128 -340
-249 -107 -48 -252 -123 -285 -148 -92 -68 -167 -172 -196 -271 -56 -193 -20
-363 101 -469 62 -55 134 -76 239 -69 192 12 364 125 498 329 l53 80 6 -49
c11 -79 16 -98 37 -139 42 -82 99 -122 186 -131 70 -7 123 20 164 84 42 66 45
99 12 148 -26 39 -52 95 -57 125 -6 28 -22 175 -28 245 -3 38 -7 81 -10 95 -2
14 -6 61 -10 105 -3 44 -8 96 -10 115 -2 19 -6 67 -10 105 -21 246 -86 399
-193 462 -38 23 -58 27 -133 29 -48 1 -89 0 -91 -1z m58 -830 c-51 -143 -108
-236 -201 -330 -147 -148 -258 -169 -310 -59 -56 118 80 256 439 443 54 29
100 50 103 48 2 -2 -12 -48 -31 -102z"/>
</g>
</svg>
